<svg width="16" height="17" viewBox="0 0 16 17" fill="none" xmlns="http://www.w3.org/2000/svg">
<g id="Icons/Add">
<path id="Union" fill-rule="evenodd" clip-rule="evenodd" d="M7.98461 2L7.87801 2.00615L7.86362 2.00782C7.2828 2.07527 6.83236 2.56801 6.83236 3.16667V7.33333H2.65134L2.54471 7.33946L2.53022 7.34114C1.9495 7.40863 1.49902 7.90136 1.49902 8.5V8.51442L1.50518 8.62101L1.50685 8.63541C1.57429 9.21622 2.06704 9.66667 2.66569 9.66667H6.83236V13.8477L6.83848 13.9543L6.84017 13.9688C6.90765 14.5496 7.4004 15 7.99902 15H8.01338L8.11999 14.9939L8.13447 14.9922C8.71525 14.9247 9.16569 14.432 9.16569 13.8333V9.66667H13.3467L13.4533 9.66054L13.4678 9.65886C14.0486 9.59137 14.499 9.09863 14.499 8.5V8.48565L14.4929 8.37903L14.4912 8.36455C14.4237 7.78377 13.931 7.33333 13.3324 7.33333H9.16569V3.15232L9.15956 3.04568L9.15788 3.0312C9.09039 2.45047 8.59766 2 7.99902 2H7.98461Z" fill="#B81C29"/>
</g>
</svg>
