<svg width="18" height="18" viewBox="0 0 18 18" fill="none" xmlns="http://www.w3.org/2000/svg">
<path fill-rule="evenodd" clip-rule="evenodd" d="M3.63643 1.7887C3.4778 1.7883 3.32488 1.8063 3.17957 1.8404C2.98037 1.4014 2.71725 1.0075 2.41798 0.7082C1.91005 0.2003 1.10895 0 0 0V1.7864C0.67744 1.7864 1.06728 1.8839 1.15481 1.9714C1.49241 2.309 1.7864 2.995 1.7864 3.5728L1.79537 3.6991L2.67059 9.8256C1.20614 9.9016 0.0716301 11.0389 0.00110006 12.4605L0 13.398C0.08648 14.8663 1.21721 15.9959 2.6289 16.0761L2.83167 16.0764C3.1992 17.1178 4.19206 17.864 5.3592 17.864C6.5259 17.864 7.5185 17.1183 7.8863 16.0776H9.9777C10.3455 17.1183 11.3381 17.864 12.5048 17.864C13.9847 17.864 15.1844 16.6643 15.1844 15.1844C15.1844 13.7045 13.9847 12.5048 12.5048 12.5048C11.3381 12.5048 10.3455 13.2504 9.9777 14.2912H7.8863C7.5185 13.2504 6.5259 12.5048 5.3592 12.5048C4.19248 12.5048 3.19992 13.2504 2.83207 14.2912H2.6796C2.22407 14.2638 1.81546 13.8557 1.78479 13.3445L1.7864 12.5048C1.81048 12.0415 2.2163 11.6357 2.72386 11.6105L4.48715 11.6109L4.49993 11.6116H13.5024L13.6342 11.5697C14.3114 11.3548 14.8536 10.8449 15.1103 10.1847L15.2043 9.9985L15.5101 9.3928C15.8264 8.7658 16.1427 8.1377 16.4509 7.5241C17.2059 6.0211 17.6807 5.0659 17.7858 4.8314C18.3258 3.6268 17.232 2.6997 16.1139 2.6799L3.63643 1.7887ZM13.1916 9.825H4.5664C4.50904 9.809 4.46534 9.7604 4.45678 9.6999L3.58154 3.5732L15.9819 4.4613C15.7649 4.9037 15.3705 5.6941 14.8542 6.7221L14.8412 6.7478C14.5465 7.3346 14.2306 7.9618 13.9147 8.588L13.6094 9.1929L13.4936 9.422L13.4501 9.5233C13.4034 9.6533 13.3108 9.7601 13.1916 9.825ZM12.5047 16.0774C12.998 16.0774 13.3979 15.6775 13.3979 15.1842C13.3979 14.6909 12.998 14.291 12.5047 14.291C12.0114 14.291 11.6115 14.6909 11.6115 15.1842C11.6115 15.6775 12.0114 16.0774 12.5047 16.0774ZM6.2524 15.1842C6.2524 15.6775 5.8525 16.0774 5.3592 16.0774C4.86589 16.0774 4.46599 15.6775 4.46599 15.1842C4.46599 14.6909 4.86589 14.291 5.3592 14.291C5.8525 14.291 6.2524 14.6909 6.2524 15.1842Z" fill="#B81C29"/>
</svg>
