<svg width="28" height="26" viewBox="0 0 28 26" fill="none" xmlns="http://www.w3.org/2000/svg">
<path d="M11.2553 19.6181L18.2448 19.7079C18.0477 19.8858 17.869 20.0843 17.7117 20.3L11.8915 20.3C11.7072 20.0473 11.4935 19.8182 11.2553 19.6181ZM8.85313 19.74C9.46927 19.74 10.0421 19.9474 10.5064 20.3H7.25C7.23345 20.3 7.21693 20.2999 7.20044 20.2996C7.66466 19.9472 8.23725 19.74 8.85313 19.74ZM6.0625 22.62C6.0625 22.1055 6.19243 21.6247 6.41941 21.2089C6.66737 21.2642 6.92443 21.2953 7.18818 21.2995C6.90945 21.6658 6.74454 22.1252 6.74454 22.62C6.74454 23.796 7.67604 24.7723 8.85313 24.7723C10.0302 24.7723 10.9617 23.796 10.9617 22.62C10.9617 22.1254 10.797 21.6662 10.5185 21.3H11.3345C11.5319 21.6943 11.6438 22.1427 11.6438 22.62C11.6438 24.2233 10.3818 25.5 8.85313 25.5C7.32446 25.5 6.0625 24.2233 6.0625 22.62ZM6.03677 20.0231C5.0594 19.5528 4.375 18.5314 4.375 17.3333V1.73333V1.23333H3.875H1.34375C1.16669 1.23333 1 1.08164 1 0.866667C1 0.651694 1.16669 0.5 1.34375 0.5L4.71875 0.5C4.89581 0.5 5.0625 0.651694 5.0625 0.866667V0.869459V0.872229V0.874978V0.877705V0.880411V0.883095V0.885758V0.888399V0.89102V0.893619V0.896197V0.898755V0.901292V0.903808V0.906303V0.908779V0.911233V0.913668V0.916082V0.918476V0.92085V0.923205V0.925539V0.927854V0.930149V0.932425V0.934681V0.936918V0.939135V0.941334V0.943513V0.945674V0.947816V0.949938V0.952043V0.954128V0.956196V0.958244V0.960275V0.962287V0.964281V0.966258V0.968216V0.970156V0.972079V0.973985V0.975872V0.977742V0.979595V0.981431V0.98325V0.985051V0.986836V0.988603V0.990354V0.992088V0.993806V0.995507V0.997192V0.998861V1.00051V1.00215V1.00377V1.00537V1.00696V1.00854V1.01009V1.01163V1.01316V1.01467V1.01617V1.01765V1.01911V1.02056V1.022V1.02342V1.02483V1.02622V1.0276V1.02896V1.03031V1.03164V1.03296V1.03427V1.03556V1.03684V1.0381V1.03935V1.04059V1.04182V1.04303V1.04422V1.04541V1.04658V1.04774V1.04889V1.05002V1.05114V1.05225V1.05334V1.05442V1.05549V1.05655V1.0576V1.05863V1.05966V1.06067V1.06166V1.06265V1.06363V1.06459V1.06554V1.06649V1.06742V1.06834V1.06924V1.07014V1.07103V1.0719V1.07277V1.07363V1.07447V1.0753V1.07613V1.07694V1.07775V1.07854V1.07933V1.0801V1.08086V1.08162V1.08237V1.0831V1.08383V1.08455V1.08526V1.08596V1.08665V1.08733V1.08801V1.08867V1.08933V1.08998V1.09062V1.09125V1.09187V1.09249V1.0931V1.0937V1.09429V1.09488V1.09545V1.09602V1.09659V1.09714V1.09769V1.09823V1.09876V1.09929V1.09981V1.10033V1.10083V1.10133V1.10183V1.10232V1.1028V1.10327V1.10374V1.10421V1.10467V1.10512V1.10556V1.10601V1.10644V1.10687V1.1073V1.10772V1.10813V1.10854V1.10895V1.10935V1.10974V1.11013V1.11052V1.1109V1.11128V1.11165V1.11202V1.11239V1.11275V1.11311V1.11346V1.11381V1.11416V1.1145V1.11484V1.11518V1.11552V1.11585V1.11617V1.1165V1.11682V1.11714V1.11746V1.11777V1.11808V1.11839V1.1187V1.11901V1.11931V1.11961V1.11991V1.12021V1.1205V1.1208V1.12109V1.12138V1.12168V1.12196V1.12225V1.12254V1.12283V1.12311V1.1234V1.12368V1.12397V1.12425V1.12453V1.12482V1.1251V1.12538V1.12567V1.12595V1.12623V1.12652V1.1268V1.12709V1.12737V1.12766V1.12795V1.12823V1.12852V1.12881V1.1291V1.1294V1.12969V1.12999V1.13029V1.13058V1.13089V1.13119V1.13149V1.1318V1.13211V1.13242V1.13273V1.13305V1.13337V1.13369V1.13401V1.13434V1.13467V1.135V1.13534V1.13568V1.13602V1.13637V1.13672V1.13707V1.13743V1.13779V1.13815V1.13852V1.13889V1.13927V1.13965V1.14003V1.14042V1.14082V1.14122V1.14162V1.14203V1.14244V1.14286V1.14328V1.14371V1.14415V1.14459V1.14503V1.14548V1.14594V1.1464V1.14687V1.14734V1.14782V1.14831V1.1488V1.1493V1.14981V1.15032V1.15084V1.15136V1.15189V1.15243V1.15298V1.15353V1.15409V1.15466V1.15524V1.15582V1.15641V1.15701V1.15761V1.15823V1.15885V1.15948V1.16011V1.16076V1.16142V1.16208V1.16275V1.16343V1.16412V1.16482V1.16552V1.16624V1.16696V1.1677V1.16844V1.16919V1.16996V1.17073V1.17151V1.1723V1.1731V1.17391V1.17473V1.17556V1.17641V1.17726V1.17812V1.17899V1.17988V1.18077V1.18168V1.18259V1.18352V1.18446V1.18541V1.18637V1.18734V1.18832V1.18932V1.19033V1.19134V1.19238V1.19342V1.19447V1.19554V1.19662V1.19771V1.19881V1.19993V1.20106V1.2022V1.20336V1.20452V1.2057V1.2069V1.2081V1.20932V1.21056V1.21181V1.21307V1.21434V1.21563V1.21693V1.21825V1.21958V1.22092V1.22228V1.22365V1.22504V1.22644V1.22786V1.22929V1.23074V1.2322V1.23367V1.23516V1.23667V1.23819V1.23973V1.24128V1.24285V1.24443V1.24603V1.24765V1.24928V1.25093V1.25259V1.25427V1.25597V1.25768V1.25941V1.26116V1.26292V1.2647V1.26649V1.26831V1.27014V1.27199V1.27385V1.27573V1.27763V1.27955V1.28149V1.28344V1.28541V1.2874V1.28941V1.29143V1.29347V1.29554V1.29762V1.29971V1.30183V1.30397V1.30612V1.3083V1.31049V1.3127V1.31493V1.31718V1.31945V1.32174V1.32405V1.32638V1.32873V1.3311V1.33348V1.33589V1.33832V1.34077V1.34324V1.34573V1.34824V1.35077V1.35332V1.35589V1.35848V1.3611V1.36373V1.36639V1.36907V1.37177V1.37449V1.37723V1.37999V1.38278V1.38559V1.38842V1.39127V1.39414V1.39704V1.39996V1.4029V1.40586V1.40885V1.41185V1.41489V1.41794V1.42102V1.42412V1.42724V1.43039V1.43356V1.43675V1.43997V1.44321V1.44648V1.44977V1.45308V1.45641V1.45978V1.46316V1.46657V1.47V1.47346V1.47695V1.48045V1.48399V1.48754V1.49113V1.49473V1.49837V1.50203V1.50571V1.50942V1.51315V1.51691V1.5207V1.52451V1.52835V1.53221V1.5361V1.54002V1.54396V1.54793V1.55193V1.55595V1.56V3.46667V3.96667H5.5625H26.6562C26.8333 3.96667 27 4.11836 27 4.33333L27 4.33353C26.9998 4.33645 26.9977 4.37182 26.985 4.45841C26.973 4.54047 26.9548 4.64838 26.9303 4.78109C26.8815 5.04603 26.8105 5.39654 26.7226 5.81102C26.5469 6.63927 26.3063 7.71094 26.0473 8.83955C25.5295 11.0961 24.9403 13.5716 24.6552 14.7636C24.6005 14.9923 24.4145 15.1475 24.203 15.1664L5.51802 16.8353L5.0625 16.876V17.3333C5.0625 18.3386 5.71756 19.2024 6.63043 19.4763C6.41408 19.6369 6.2151 19.8204 6.03677 20.0231ZM19.0967 20.3C19.5147 19.9826 20.0206 19.7829 20.5668 19.7461L21.1899 20.3H19.0967ZM18.2686 21.3H19.0847C18.8062 21.6662 18.6414 22.1254 18.6414 22.62C18.6414 23.796 19.5729 24.7723 20.75 24.7723C21.9271 24.7723 22.8586 23.796 22.8586 22.62C22.8586 22.1254 22.6938 21.6662 22.4153 21.3H22.505H23.2314C23.4288 21.6943 23.5406 22.1427 23.5406 22.62C23.5406 24.2233 22.2787 25.5 20.75 25.5C19.2213 25.5 17.9594 24.2233 17.9594 22.62C17.9594 22.1427 18.0712 21.6943 18.2686 21.3ZM5.5625 4.7H5.0625V5.2V15.6V16.1442L5.60479 16.0982L23.6973 14.5625L24.0558 14.532L24.1409 14.1825L26.2983 5.31824L26.4488 4.7H25.8125H5.5625Z" fill="black" stroke="#242424"/>
</svg>
