<svg width="16" height="16" viewBox="0 0 16 16" fill="none" xmlns="http://www.w3.org/2000/svg">
<g id="diamond 1" clip-path="url(#clip0_2976_36313)">
<g id="Group">
<g id="Group_2">
<path id="Vector" d="M15.921 5.85914L13.3067 1.65873C13.2112 1.50536 13.0433 1.41211 12.8627 1.41211H3.13734C2.95677 1.41211 2.78893 1.50536 2.6934 1.65873L0.0790475 5.85914C-0.0464515 6.06079 -0.0204829 6.32154 0.142485 6.49426L7.61955 14.4243C7.71836 14.529 7.85605 14.5885 8.00002 14.5885C8.14398 14.5885 8.28167 14.529 8.38048 14.4241L15.8575 6.49426C16.0204 6.32135 16.0465 6.06079 15.921 5.85914ZM8.00005 13.3035L1.1797 6.06985L3.42787 2.45785H12.5724L14.8204 6.06985L8.00005 13.3035Z" fill="#B81C29"/>
</g>
</g>
<g id="Group_3">
<g id="Group_4">
<path id="Vector_2" d="M15.4771 5.6123H0.522949V6.65805H15.4771V5.6123Z" fill="#B81C29"/>
</g>
</g>
<g id="Group_5">
<g id="Group_6">
<path id="Vector_3" d="M5.37073 6.08456L6.17701 2.03631L5.1513 1.83203L4.31471 6.03244C4.29502 6.13178 4.30443 6.23462 4.34209 6.32875L7.51419 14.259L8.48515 13.8707L5.37073 6.08456Z" fill="#B81C29"/>
</g>
</g>
<g id="Group_7">
<g id="Group_8">
<path id="Vector_4" d="M11.7183 5.99051L10.8469 1.91211L9.82431 2.13067L10.6625 6.05273L7.51514 13.8697L8.48507 14.2601L11.6922 6.29517C11.7309 6.19845 11.7401 6.09229 11.7183 5.99051Z" fill="#B81C29"/>
</g>
</g>
</g>
<defs>
<clipPath id="clip0_2976_36313">
<rect width="16" height="16" fill="white"/>
</clipPath>
</defs>
</svg>
