<svg width="16" height="16" viewBox="0 0 16 16" fill="none" xmlns="http://www.w3.org/2000/svg">
<g id="discount (1) 1" clip-path="url(#clip0_2976_36326)">
<g id="Group">
<g id="Group_2">
<path id="Vector" d="M15.9665 9.82976L15.2636 7.99998L15.9655 6.1692C16.0435 5.96722 15.9815 5.73725 15.8135 5.60126L14.2907 4.36741L13.9828 2.43064C13.9488 2.21767 13.7808 2.04969 13.5678 2.01569L11.631 1.70773L10.3972 0.184908C10.2612 0.0169277 10.0322 -0.044065 9.82925 0.0329258L7.99947 0.735842L6.16868 0.0339257C5.96671 -0.044065 5.73774 0.0169277 5.60175 0.185908L4.3679 1.70873L2.43113 2.01669C2.21815 2.05069 2.05017 2.21867 2.01618 2.43164L1.70821 4.36841L0.185396 5.60226C0.017416 5.73825 -0.0435767 5.96722 0.0334141 6.1692L0.735331 7.99998L0.0334141 9.83076C-0.0435767 10.0327 0.017416 10.2617 0.185396 10.3977L1.70821 11.6315L2.01618 13.5683C2.05017 13.7813 2.21815 13.9493 2.43113 13.9833L4.3679 14.2912L5.60175 15.814C5.73874 15.983 5.96771 16.045 6.16968 15.966L7.99947 15.2641L9.83025 15.966C9.88824 15.988 9.94923 15.999 10.0092 15.999C10.1562 15.999 10.3012 15.934 10.3982 15.814L11.632 14.2912L13.5688 13.9833C13.7818 13.9493 13.9498 13.7813 13.9838 13.5683L14.2917 11.6315L15.8145 10.3977C15.9825 10.2617 16.0435 10.0317 15.9665 9.82976ZM14.2597 8.17896L14.9006 9.84876L13.5098 10.9746C13.4138 11.0526 13.3498 11.1626 13.3308 11.2846L13.0499 13.0514L11.2831 13.3323C11.1611 13.3513 11.0511 13.4153 10.9731 13.5113L9.84925 14.9022L8.17944 14.2612C8.12145 14.2402 8.06046 14.2282 7.99947 14.2282C7.93847 14.2282 7.87748 14.2392 7.82049 14.2612L6.15069 14.9022L5.02482 13.5113C4.94683 13.4153 4.83684 13.3513 4.71486 13.3323L2.94807 13.0514L2.6671 11.2846C2.6481 11.1626 2.58411 11.0526 2.48812 10.9746L1.09729 9.84976L1.73821 8.17996C1.78221 8.06397 1.78221 7.93598 1.73721 7.821L1.09729 6.1502L2.48812 5.02433C2.58411 4.94634 2.6481 4.83635 2.6671 4.71437L2.94807 2.94758L4.71486 2.66661C4.83684 2.64761 4.94683 2.58362 5.02482 2.48763L6.14969 1.0978L7.81949 1.73872C7.93447 1.78272 8.06246 1.78272 8.17744 1.73872L9.84725 1.0978L10.9731 2.48863C11.0511 2.58462 11.1611 2.64861 11.2831 2.66761L13.0499 2.94858L13.3308 4.71537C13.3498 4.83735 13.4138 4.94734 13.5098 5.02533L14.9006 6.1512L14.2597 7.821C14.2157 7.93598 14.2157 8.06397 14.2597 8.17896Z" fill="#B81C29"/>
</g>
</g>
<g id="Group_3">
<g id="Group_4">
<path id="Vector_2" d="M6.49982 4.00098C5.67292 4.00098 5 4.6739 5 5.5008C5 6.3277 5.67292 7.00062 6.49982 7.00062C7.32673 7.00062 7.99965 6.3277 7.99965 5.5008C7.99965 4.6739 7.32673 4.00098 6.49982 4.00098ZM6.49982 6.00074C6.22386 6.00074 5.99988 5.77677 5.99988 5.5008C5.99988 5.22483 6.22386 5.00086 6.49982 5.00086C6.77579 5.00086 6.99976 5.22483 6.99976 5.5008C6.99976 5.77677 6.77579 6.00074 6.49982 6.00074Z" fill="#B81C29"/>
</g>
</g>
<g id="Group_5">
<g id="Group_6">
<path id="Vector_3" d="M9.49933 9C8.67243 9 7.99951 9.67292 7.99951 10.4998C7.99951 11.3267 8.67243 11.9997 9.49933 11.9997C10.3262 11.9997 10.9992 11.3267 10.9992 10.4998C10.9992 9.67292 10.3262 9 9.49933 9ZM9.49933 10.9998C9.22337 10.9998 8.99939 10.7758 8.99939 10.4998C8.99939 10.2239 9.22337 9.99988 9.49933 9.99988C9.7753 9.99988 9.99927 10.2239 9.99927 10.4998C9.99927 10.7758 9.7753 10.9998 9.49933 10.9998Z" fill="#B81C29"/>
</g>
</g>
<g id="Group_7">
<g id="Group_8">
<path id="Vector_4" d="M10.7904 4.09478C10.5664 3.9348 10.2535 3.98679 10.0935 4.21077L5.09409 11.2099C4.93311 11.4339 4.98511 11.7469 5.20908 11.9068C5.29707 11.9698 5.39906 11.9998 5.50004 11.9998C5.65602 11.9998 5.81001 11.9268 5.907 11.7909L10.9064 4.7917C11.0674 4.56672 11.0144 4.25476 10.7904 4.09478Z" fill="#B81C29"/>
</g>
</g>
</g>
<defs>
<clipPath id="clip0_2976_36326">
<rect width="16" height="16" fill="white"/>
</clipPath>
</defs>
</svg>
