<svg width="30" height="30" viewBox="0 0 30 30" fill="none" xmlns="http://www.w3.org/2000/svg">
<path d="M28.3425 14.579C28.3032 14.489 27.3432 12.3601 25.1994 10.2163C23.2102 8.22938 19.7925 5.85938 14.7871 5.85938C9.78171 5.85938 6.36401 8.22938 4.37478 10.2163C2.23094 12.3601 1.27094 14.4855 1.23171 14.579C1.19226 14.6676 1.17188 14.7635 1.17188 14.8605C1.17188 14.9575 1.19226 15.0534 1.23171 15.1421C1.27094 15.2309 2.23094 17.3598 4.37478 19.5036C6.36401 21.4905 9.78171 23.8594 14.7871 23.8594C19.7925 23.8594 23.2102 21.4905 25.1994 19.5036C27.3432 17.3598 28.3032 15.2344 28.3425 15.1421C28.3819 15.0534 28.4023 14.9575 28.4023 14.8605C28.4023 14.7635 28.3819 14.6676 28.3425 14.579ZM14.7871 22.4748C11.1663 22.4748 8.00478 21.1571 5.38901 18.5598C4.29249 17.47 3.36459 16.2228 2.63594 14.8594C3.36438 13.4961 4.2923 12.2493 5.38901 11.1601C8.00478 8.56168 11.1663 7.24399 14.7871 7.24399C18.4079 7.24399 21.5694 8.56168 24.1852 11.1601C25.2819 12.2493 26.2098 13.4961 26.9382 14.8594C26.2032 16.2682 22.5179 22.4748 14.7871 22.4748ZM14.7871 9.55168C13.7373 9.55168 12.7111 9.86297 11.8383 10.4462C10.9655 11.0294 10.2851 11.8584 9.88342 12.8282C9.4817 13.7981 9.37659 14.8653 9.58139 15.8949C9.78618 16.9244 10.2917 17.8702 11.034 18.6125C11.7763 19.3548 12.722 19.8603 13.7516 20.0651C14.7812 20.2699 15.8484 20.1648 16.8183 19.763C17.7881 19.3613 18.6171 18.681 19.2003 17.8082C19.7835 16.9353 20.0948 15.9091 20.0948 14.8594C20.093 13.4523 19.5332 12.1033 18.5382 11.1083C17.5432 10.1133 16.1942 9.55351 14.7871 9.55168ZM14.7871 18.7825C14.0112 18.7825 13.2527 18.5524 12.6075 18.1213C11.9624 17.6902 11.4596 17.0775 11.1626 16.3607C10.8657 15.6438 10.788 14.855 10.9394 14.094C11.0908 13.333 11.4644 12.634 12.0131 12.0853C12.5617 11.5367 13.2607 11.1631 14.0217 11.0117C14.7827 10.8603 15.5715 10.938 16.2884 11.2349C17.0052 11.5319 17.6179 12.0347 18.049 12.6798C18.4801 13.325 18.7102 14.0835 18.7102 14.8594C18.7102 15.8998 18.2968 16.8977 17.5611 17.6334C16.8254 18.3691 15.8276 18.7825 14.7871 18.7825Z" fill="#242424"/>
</svg>
