<svg width="25" height="26" viewBox="0 0 25 26" fill="none" xmlns="http://www.w3.org/2000/svg">
<g id="Social/ colored icons/Facebook">
<path id="Facebook" fill-rule="evenodd" clip-rule="evenodd" d="M12.5461 20.5H4.88308C4.39522 20.5 4 20.1045 4 19.6169V5.38307C4 4.89528 4.39529 4.5 4.88308 4.5H19.117C19.6047 4.5 20 4.89528 20 5.38307V19.6169C20 20.1046 19.6046 20.5 19.117 20.5H15.0398V14.3039H17.1195L17.4309 11.8892H15.0398V10.3475C15.0398 9.64843 15.2339 9.172 16.2364 9.172L17.5151 9.17144V7.0117C17.294 6.98227 16.5349 6.91652 15.6519 6.91652C13.8083 6.91652 12.5461 8.04184 12.5461 10.1084V11.8892H10.461V14.3039H12.5461V20.5Z" fill="white"/>
</g>
</svg>
