<svg width="28" height="26" viewBox="0 0 28 26" fill="none" xmlns="http://www.w3.org/2000/svg">
<path d="M13.6363 3.98614L13.9811 4.35205L14.3451 4.0052C16.1489 2.28631 18.1586 0.757812 20.771 0.757812C24.4225 0.757812 27.0418 3.90251 27.0418 7.39852C27.0418 9.25999 26.4359 10.593 25.4388 11.874L14.9077 24.4713C14.6167 24.7789 14.4095 24.982 14.2426 25.1089C14.0752 25.2363 14.0062 25.2413 13.9887 25.2413C13.9713 25.2413 13.9023 25.2363 13.7349 25.1089C13.568 24.982 13.3609 24.779 13.0699 24.4715L2.57481 11.8889C1.69797 10.5642 0.958496 9.23304 0.958496 7.39852C0.958496 3.90247 3.57776 0.757812 7.22933 0.757812C9.85149 0.757812 11.9487 2.19535 13.6363 3.98614ZM24.5396 12.1588L24.5398 12.1589L24.5478 12.1488C25.2276 11.2935 25.6828 10.5275 25.9652 9.75522C26.2488 8.97975 26.3491 8.22278 26.3491 7.39852C26.3491 4.2731 24.0247 1.34471 20.771 1.34471C19.3789 1.34471 17.9468 2.06002 16.7163 2.95225C15.6736 3.70828 14.7265 4.62725 14.0021 5.46204C13.2645 4.60302 12.3134 3.67519 11.2687 2.91953C10.0408 2.03142 8.61772 1.33327 7.22524 1.34473C3.89387 1.372 1.6512 4.27437 1.6512 7.39852C1.6512 9.10429 2.1903 10.345 3.43801 12.0797L3.44852 12.0943L3.46005 12.1081L13.6163 24.2761L13.9994 24.7351L14.3834 24.2769L24.5396 12.1588Z" fill="black" stroke="#242424"/>
</svg>
