<svg width="21" height="20" viewBox="0 0 21 20" fill="none" xmlns="http://www.w3.org/2000/svg">
<path id="Vector" d="M15.214 1.12891C13.2501 1.12891 11.764 2.28147 10.5001 3.48586C9.29569 2.20781 7.75011 1.12891 5.78617 1.12891C3.02028 1.12891 1.07227 3.50706 1.07227 6.10032C1.07227 7.49151 1.64206 8.49381 2.26605 9.43481L9.59205 18.218C10.4146 19.0883 10.5696 19.0883 11.3922 18.218L18.7347 9.43481C19.4683 8.49381 19.9279 7.49151 19.9279 6.10032C19.9279 3.50709 17.9798 1.12891 15.214 1.12891ZM17.5709 9.19088L10.5001 17.6276L3.42922 9.1561C2.58367 7.98058 2.25074 7.18748 2.25074 6.10032C2.25074 4.07451 3.69733 2.25082 5.78617 2.23372C7.50441 2.21957 9.45183 3.97432 10.5001 5.29717C11.5207 4.02029 13.4957 2.23372 15.214 2.23372C17.2474 2.23372 18.7494 4.07451 18.7494 6.10032C18.7494 7.18748 18.486 8.03949 17.5709 9.19088Z" fill="#B81C29" stroke="#B81C29" stroke-width="0.5"/>
</svg>
