<svg width="25" height="26" viewBox="0 0 25 26" fill="none" xmlns="http://www.w3.org/2000/svg">
<path fill-rule="evenodd" clip-rule="evenodd" d="M12 4.5C9.82733 4.5 9.5549 4.50921 8.70161 4.54814C7.8501 4.58698 7.26855 4.72223 6.7597 4.92001C6.23363 5.12442 5.78748 5.39797 5.34271 5.84271C4.89797 6.28748 4.62442 6.73363 4.42001 7.2597C4.22223 7.76855 4.08698 8.3501 4.04814 9.20161C4.00921 10.0549 4 10.3273 4 12.5C4 14.6727 4.00921 14.9451 4.04814 15.7984C4.08698 16.6499 4.22223 17.2314 4.42001 17.7403C4.62442 18.2664 4.89797 18.7125 5.34271 19.1573C5.78748 19.602 6.23363 19.8756 6.7597 20.08C7.26855 20.2778 7.8501 20.413 8.70161 20.4519C9.5549 20.4908 9.82733 20.5 12 20.5C14.1727 20.5 14.4451 20.4908 15.2984 20.4519C16.1499 20.413 16.7314 20.2778 17.2403 20.08C17.7664 19.8756 18.2125 19.602 18.6573 19.1573C19.102 18.7125 19.3756 18.2664 19.58 17.7403C19.7778 17.2314 19.913 16.6499 19.9519 15.7984C19.9908 14.9451 20 14.6727 20 12.5C20 10.3273 19.9908 10.0549 19.9519 9.20161C19.913 8.3501 19.7778 7.76855 19.58 7.2597C19.3756 6.73363 19.102 6.28748 18.6573 5.84271C18.2125 5.39797 17.7664 5.12442 17.2403 4.92001C16.7314 4.72223 16.1499 4.58698 15.2984 4.54814C14.4451 4.50921 14.1727 4.5 12 4.5ZM12 5.94144C14.1361 5.94144 14.3891 5.9496 15.2327 5.98809C16.0127 6.02366 16.4363 6.15398 16.7182 6.26354C17.0916 6.40867 17.3581 6.58202 17.638 6.86198C17.918 7.14191 18.0913 7.40841 18.2365 7.78183C18.346 8.06373 18.4763 8.48732 18.5119 9.26731C18.5504 10.1109 18.5586 10.3639 18.5586 12.5C18.5586 14.6361 18.5504 14.8891 18.5119 15.7327C18.4763 16.5127 18.346 16.9363 18.2365 17.2182C18.0913 17.5916 17.918 17.8581 17.638 18.138C17.3581 18.418 17.0916 18.5913 16.7182 18.7365C16.4363 18.846 16.0127 18.9763 15.2327 19.0119C14.3892 19.0504 14.1362 19.0586 12 19.0586C9.86375 19.0586 9.61079 19.0504 8.76731 19.0119C7.98732 18.9763 7.56373 18.846 7.28183 18.7365C6.90841 18.5913 6.64191 18.418 6.36198 18.138C6.08205 17.8581 5.90867 17.5916 5.76354 17.2182C5.65398 16.9363 5.52366 16.5127 5.48809 15.7327C5.4496 14.8891 5.44144 14.6361 5.44144 12.5C5.44144 10.3639 5.4496 10.1109 5.48809 9.26731C5.52366 8.48732 5.65398 8.06373 5.76354 7.78183C5.90867 7.40841 6.08202 7.14191 6.36198 6.86198C6.64191 6.58202 6.90841 6.40867 7.28183 6.26354C7.56373 6.15398 7.98732 6.02366 8.76731 5.98809C9.61088 5.9496 9.86391 5.94144 12 5.94144ZM7.89189 12.5C7.89189 10.2311 9.73114 8.39189 12 8.39189C14.2689 8.39189 16.1081 10.2311 16.1081 12.5C16.1081 14.7689 14.2689 16.6081 12 16.6081C9.73114 16.6081 7.89189 14.7689 7.89189 12.5ZM12 15.1667C10.5272 15.1667 9.33333 13.9728 9.33333 12.5C9.33333 11.0272 10.5272 9.83333 12 9.83333C13.4728 9.83333 14.6667 11.0272 14.6667 12.5C14.6667 13.9728 13.4728 15.1667 12 15.1667ZM16.2704 9.18957C16.8006 9.18957 17.2304 8.75979 17.2304 8.22959C17.2304 7.69939 16.8006 7.26957 16.2704 7.26957C15.7402 7.26957 15.3104 7.69939 15.3104 8.22959C15.3104 8.75979 15.7402 9.18957 16.2704 9.18957Z" fill="white"/>
</svg>
