<svg width="17" height="16" viewBox="0 0 17 16" fill="none" xmlns="http://www.w3.org/2000/svg">
<path d="M15.9156 13.4026H0.837662C0.375278 13.4026 0 13.7779 0 14.2403C0 14.7027 0.375278 15.0779 0.837662 15.0779H15.9156C16.378 15.0779 16.7532 14.7027 16.7532 14.2402C16.7532 13.7779 16.378 13.4026 15.9156 13.4026ZM0.837662 1.67532H15.9156C16.378 1.67532 16.7532 1.30007 16.7532 0.837662C16.7532 0.375251 16.378 0 15.9156 0H0.837662C0.375278 2.73746e-05 0 0.375278 0 0.83769C0 1.30007 0.375278 1.67532 0.837662 1.67532ZM15.9156 6.7013H0.837662C0.375278 6.7013 0 7.07658 0 7.53899C0 8.0014 0.375278 8.37665 0.837662 8.37665H15.9156C16.378 8.37665 16.7532 8.00137 16.7532 7.53899C16.7532 7.0766 16.378 6.7013 15.9156 6.7013Z" fill="white"/>
</svg>
