<svg width="18" height="18" viewBox="0 0 18 18" fill="none" xmlns="http://www.w3.org/2000/svg">
<g clip-path="url(#clip0_4_4047)">
<path d="M16.7598 14.6428H1.6819C1.21952 14.6428 0.844238 15.0181 0.844238 15.4805C0.844238 15.9429 1.21952 16.3182 1.6819 16.3182H16.7598C17.2222 16.3182 17.5975 15.9429 17.5975 15.4805C17.5975 15.0181 17.2222 14.6428 16.7598 14.6428ZM1.6819 2.91556H16.7598C17.2222 2.91556 17.5975 2.54031 17.5975 2.0779C17.5975 1.61549 17.2222 1.24023 16.7598 1.24023H1.6819C1.21952 1.24026 0.844238 1.61551 0.844238 2.07792C0.844238 2.54031 1.21952 2.91556 1.6819 2.91556ZM16.7598 7.94153H1.6819C1.21952 7.94153 0.844238 8.31681 0.844238 8.77922C0.844238 9.24163 1.21952 9.61688 1.6819 9.61688H16.7598C17.2222 9.61688 17.5975 9.24161 17.5975 8.77922C17.5975 8.31684 17.2222 7.94153 16.7598 7.94153Z" fill="white"/>
</g>
<defs>
<clipPath id="clip0_4_4047">
<rect width="16.7532" height="16.7532" fill="white" transform="translate(0.844238 0.402344)"/>
</clipPath>
</defs>
</svg>
