<svg width="29" height="29" viewBox="0 0 29 29" fill="none" xmlns="http://www.w3.org/2000/svg">
<g id="Icon" opacity="0.5" clip-path="url(#clip0_2957_41668)">
<path id="Union" fill-rule="evenodd" clip-rule="evenodd" d="M8.32589 2.81766V0.862561C8.29757 0.569771 8.43917 -0.010152 9.23211 0.0125172C9.99811 -0.00938413 12.9576 0.00221682 14.4854 0.0115418C16.0131 0.00221682 18.9726 -0.00938413 19.7386 0.0125172C20.5315 -0.010152 20.6731 0.569771 20.6448 0.862561V2.81766C20.6448 3.18035 20.456 3.45992 20.3616 3.55437L18.889 5.05611V9.61802H19.597C20.0662 9.61802 20.4466 9.99859 20.4466 10.4681V15.625C20.4466 16.0945 20.0662 16.475 19.597 16.475H18.7089L15.3491 20.8298V22.5954C15.3491 23.0648 14.9687 23.4454 14.4995 23.4454C14.0303 23.4454 13.6499 23.0648 13.6499 22.5954V20.9191L10.2212 16.475H9.40203C8.93281 16.475 8.55245 16.0945 8.55245 15.625V10.4681C8.55245 9.99859 8.93281 9.61802 9.40203 9.61802H10.0817V5.05611L8.60908 3.55437C8.51469 3.45992 8.32589 3.18035 8.32589 2.81766ZM14.4651 18.9989L16.4123 16.475H12.5178L14.4651 18.9989ZM10.0817 1.68427H14.3296H14.6411H18.889V2.56265L17.7846 3.69604H14.6411H14.3296H11.1861L10.0817 2.56265V1.68427ZM11.8092 5.39613H14.3296H14.6411H17.1615V9.61802H11.8092V5.39613ZM10.2516 11.3181V14.775H11.9508V11.3181H10.2516ZM13.6499 11.3181V14.775H15.3491V11.3181H13.6499ZM18.7474 14.775H17.0483V11.3181H18.7474V14.775ZM2.13918 19.3181C2.41348 18.9373 2.94444 18.851 3.32513 19.1254L4.6174 20.057C4.99808 20.3315 5.08432 20.8627 4.81002 21.2436C4.53573 21.6245 4.00476 21.7108 3.62408 21.4364L2.33181 20.5047C1.95112 20.2303 1.86488 19.699 2.13918 19.3181ZM0 28.149C0 27.6795 0.380369 27.2989 0.849581 27.2989H11.7372L6.63635 23.6216C6.25567 23.3471 6.16942 22.8159 6.44372 22.435C6.71802 22.0541 7.24898 21.9678 7.62967 22.2422L14.4902 27.1882L21.3507 22.2422C21.7313 21.9678 22.2623 22.0541 22.5366 22.435C22.8109 22.8159 22.7247 23.3471 22.344 23.6216L17.2431 27.2989H28.1494C28.6187 27.2989 28.999 27.6795 28.999 28.149C28.999 28.6184 28.6187 28.999 28.1494 28.999H0.849581C0.380369 28.999 0 28.6184 0 28.149ZM25.252 19.5221C25.6327 19.2477 26.1637 19.3339 26.438 19.7148C26.7123 20.0957 26.626 20.627 26.2454 20.9014L25.4142 21.5006C25.0335 21.7751 24.5026 21.6888 24.2283 21.3079C23.954 20.927 24.0402 20.3957 24.4209 20.1213L25.252 19.5221Z" fill="#242424" stroke="#242424" stroke-width="0.5"/>
<g id="Mask Group">
<mask id="mask0_2957_41668" style="mask-type:alpha" maskUnits="userSpaceOnUse" x="-1" y="-1" width="31" height="31">
<g id="Group 1">
<path id="Union_2" fill-rule="evenodd" clip-rule="evenodd" d="M8.32589 2.81766V0.862561C8.29757 0.569771 8.43917 -0.010152 9.23211 0.0125172C9.99811 -0.00938413 12.9576 0.00221682 14.4854 0.0115418C16.0131 0.00221682 18.9726 -0.00938413 19.7386 0.0125172C20.5315 -0.010152 20.6731 0.569771 20.6448 0.862561V2.81766C20.6448 3.18035 20.456 3.45992 20.3616 3.55437L18.889 5.05611V9.61802H19.597C20.0662 9.61802 20.4466 9.99859 20.4466 10.4681V15.625C20.4466 16.0945 20.0662 16.475 19.597 16.475H18.7089L15.3491 20.8298V22.5954C15.3491 23.0648 14.9687 23.4454 14.4995 23.4454C14.0303 23.4454 13.6499 23.0648 13.6499 22.5954V20.9191L10.2212 16.475H9.40203C8.93281 16.475 8.55245 16.0945 8.55245 15.625V10.4681C8.55245 9.99859 8.93281 9.61802 9.40203 9.61802H10.0817V5.05611L8.60908 3.55437C8.51469 3.45992 8.32589 3.18035 8.32589 2.81766ZM14.4651 18.9989L16.4123 16.475H12.5178L14.4651 18.9989ZM10.0817 1.68427H14.3296H14.6411H18.889V2.56265L17.7846 3.69604H14.6411H14.3296H11.1861L10.0817 2.56265V1.68427ZM11.8092 5.39613H14.3296H14.6411H17.1615V9.61802H11.8092V5.39613ZM10.2516 11.3181V14.775H11.9508V11.3181H10.2516ZM13.6499 11.3181V14.775H15.3491V11.3181H13.6499ZM18.7474 14.775H17.0483V11.3181H18.7474V14.775ZM2.13918 19.3181C2.41348 18.9373 2.94444 18.851 3.32513 19.1254L4.6174 20.057C4.99808 20.3315 5.08432 20.8627 4.81002 21.2436C4.53573 21.6245 4.00476 21.7108 3.62408 21.4364L2.33181 20.5047C1.95112 20.2303 1.86488 19.699 2.13918 19.3181ZM0 28.149C0 27.6795 0.380369 27.2989 0.849581 27.2989H11.7372L6.63635 23.6216C6.25567 23.3471 6.16942 22.8159 6.44372 22.435C6.71802 22.0541 7.24898 21.9678 7.62967 22.2422L14.4902 27.1882L21.3507 22.2422C21.7313 21.9678 22.2623 22.0541 22.5366 22.435C22.8109 22.8159 22.7247 23.3471 22.344 23.6216L17.2431 27.2989H28.1494C28.6187 27.2989 28.999 27.6795 28.999 28.149C28.999 28.6184 28.6187 28.999 28.1494 28.999H0.849581C0.380369 28.999 0 28.6184 0 28.149ZM25.252 19.5221C25.6327 19.2477 26.1637 19.3339 26.438 19.7148C26.7123 20.0957 26.626 20.627 26.2454 20.9014L25.4142 21.5006C25.0335 21.7751 24.5026 21.6888 24.2283 21.3079C23.954 20.927 24.0402 20.3957 24.4209 20.1213L25.252 19.5221Z" fill="#B81C29" stroke="#B81C29"/>
</g>
</mask>
<g mask="url(#mask0_2957_41668)">
<path id="Vector 2" d="M4.35059 15.2248L5.07556 -0.724611C10.1504 -2.65788 20.59 -6.52441 21.75 -6.52441C23.1999 -6.52441 24.6499 -2.89954 25.3749 -2.17456C25.9549 -1.59458 28.0331 8.21675 28.9998 13.0499L20.3 20.2997L14.5002 25.3745L13.0503 24.6495L10.1504 22.4746L4.35059 15.2248Z" fill="#242424"/>
</g>
</g>
<path id="Vector 1" d="M18.8496 2.61527V1.66797H10.1499V2.57016L11.2234 3.6979H17.7538L18.8496 2.61527Z" fill="white"/>
<rect id="Rectangle 11" x="10.2959" y="11.3105" width="1.71094" height="3.45088" fill="white"/>
<rect id="Rectangle 12" x="13.6304" y="11.3105" width="1.71094" height="3.45088" fill="white"/>
<rect id="Rectangle 13" x="17.0386" y="11.3105" width="1.71094" height="3.45088" fill="white"/>
<path id="Polygon 1" d="M14.4641 18.9951L16.5046 16.494H12.4236L14.4641 18.9951Z" fill="white"/>
</g>
<defs>
<clipPath id="clip0_2957_41668">
<rect width="28.999" height="28.999" fill="white"/>
</clipPath>
</defs>
</svg>
