<svg width="25" height="25" viewBox="0 0 25 25" fill="none" xmlns="http://www.w3.org/2000/svg">
<path id="icon" opacity="0.5" fill-rule="evenodd" clip-rule="evenodd" d="M4.3713 6.25C3.96104 5.57922 3.75 4.75357 3.75 3.75C3.75 1.77136 5.23794 0 7.5 0C9.76499 0 11.5916 1.51703 12.5 3.89228C13.4084 1.51703 15.235 0 17.5 0C19.7621 0 21.25 1.77136 21.25 3.75C21.25 4.75357 21.039 5.57922 20.6287 6.25H22.5C23.8807 6.25 25 7.36929 25 8.75V11.25C25 12.6307 23.8807 13.75 22.5 13.75V22.5C22.5 23.8807 21.3807 25 20 25H5C3.61929 25 2.5 23.8807 2.5 22.5V13.75C1.11929 13.75 0 12.6307 0 11.25V8.75C0 7.36929 1.11929 6.25 2.5 6.25H4.3713ZM11.2499 8.75006H2.49988V11.2501H11.2499V8.75006ZM22.5 11.2501H13.75V8.75006H22.5V11.2501ZM11.25 22.5V13.75H5V22.5H11.25ZM20 22.5H13.75V13.75H20V22.5ZM7.5 2.50006C6.72456 2.50006 6.25 3.06501 6.25 3.75006C6.25 5.3166 7.52125 6.06146 10.5368 6.21817C10.2016 3.88956 8.95272 2.50006 7.5 2.50006ZM14.375 6.21817C14.7101 3.88956 15.9591 2.50006 17.4118 2.50006C18.1872 2.50006 18.6618 3.06501 18.6618 3.75006C18.6618 5.3166 17.3905 6.06146 14.375 6.21817Z" fill="#242424"/>
</svg>
