<svg width="27" height="26" viewBox="0 0 27 26" fill="none" xmlns="http://www.w3.org/2000/svg">
<g id="search-interface-symbol" clip-path="url(#clip0_4_4085)">
<g id="Group">
<g id="x34  4">
<g id="Group_2">
<path id="Vector" d="M18.8319 17.9974L19.1725 17.6367C20.8949 15.8128 21.9477 13.4075 21.9477 10.765L18.8319 17.9974ZM18.8319 17.9974L19.19 18.3408M18.8319 17.9974L19.19 18.3408M19.19 18.3408L26.0769 24.9462C26.2088 25.0728 26.2088 25.2697 26.0766 25.3963L26.0761 25.3967C25.9327 25.5344 25.6914 25.5344 25.548 25.3967L25.5478 25.3965L18.634 18.765L18.322 18.4658M19.19 18.3408L18.322 18.4658M18.322 18.4658L17.9809 18.7312M18.322 18.4658L17.9809 18.7312M17.9809 18.7312C16.1371 20.1656 13.7883 21.0298 11.2239 21.0298C5.28174 21.0298 0.500977 16.415 0.500977 10.7649C0.500977 5.11481 5.28174 0.5 11.2239 0.5C17.166 0.5 21.9469 5.11477 21.9477 10.7649L17.9809 18.7312ZM1.22778 10.7649C1.22778 16.091 5.72303 20.3735 11.2239 20.3735C16.7248 20.3735 21.22 16.091 21.22 10.7649C21.22 5.43874 16.7248 1.15624 11.2239 1.15624C5.72303 1.15624 1.22778 5.43874 1.22778 10.7649Z" fill="black" stroke="#242424"/>
</g>
</g>
</g>
</g>
<defs>
<clipPath id="clip0_4_4085">
<rect width="27" height="26" fill="white"/>
</clipPath>
</defs>
</svg>
