<svg width="18" height="18" viewBox="0 0 18 18" fill="none" xmlns="http://www.w3.org/2000/svg">
<path d="M14.8124 1.5C15.7443 1.5 16.4999 2.25552 16.4999 3.1875V7.28397C16.4999 7.93035 16.2432 8.55022 15.7861 9.00735L9.41037 15.3847C8.45824 16.3348 6.91646 16.3355 5.96309 15.3857L2.61682 12.0444C1.66397 11.0935 1.66275 9.55005 2.61399 8.5974L8.98872 2.21501C9.44592 1.75723 10.0664 1.5 10.7133 1.5H14.8124ZM12.7498 4.12664C12.1285 4.12664 11.6249 4.63031 11.6249 5.25162C11.6249 5.87293 12.1285 6.3766 12.7498 6.3766C13.3711 6.3766 13.8748 5.87293 13.8748 5.25162C13.8748 4.63031 13.3711 4.12664 12.7498 4.12664Z" fill="#242424"/>
</svg>
