<svg width="25" height="26" viewBox="0 0 25 26" fill="none" xmlns="http://www.w3.org/2000/svg">
<path fill-rule="evenodd" clip-rule="evenodd" d="M21 7.41144C20.4121 7.67916 19.7791 7.86021 19.1152 7.94111C19.7932 7.52507 20.3135 6.86539 20.5586 6.07955C19.9238 6.46476 19.2222 6.74501 18.4728 6.89524C17.8755 6.24134 17.0218 5.83301 16.0771 5.83301C14.2655 5.83301 12.7957 7.34017 12.7957 9.19884C12.7957 9.46272 12.8239 9.71889 12.8803 9.96543C10.1521 9.82482 7.73381 8.48619 6.11381 6.44743C5.83113 6.94629 5.6696 7.52507 5.6696 8.14142C5.6696 9.30863 6.24905 10.3391 7.12995 10.9429C6.59277 10.9265 6.08564 10.7734 5.64237 10.523V10.5644C5.64237 12.1958 6.77402 13.5566 8.27663 13.8648C8.00147 13.9438 7.71128 13.9832 7.41169 13.9832C7.20039 13.9832 6.99378 13.963 6.79374 13.9235C7.21166 15.2602 8.42314 16.2339 9.86001 16.2599C8.73681 17.1632 7.3206 17.7016 5.78324 17.7016C5.5184 17.7016 5.25638 17.6861 5 17.6553C6.45284 18.6087 8.17896 19.1663 10.0319 19.1663C16.0705 19.1663 19.3715 14.0381 19.3715 9.58984C19.3715 9.44346 19.3687 9.29707 19.3631 9.15358C20.0045 8.6788 20.5614 8.08653 21 7.41144Z" fill="white"/>
</svg>
