<svg width="26" height="26" viewBox="0 0 26 26" fill="none" xmlns="http://www.w3.org/2000/svg">
<g id="user">
<path id="Vector" d="M19.6998 7.28C19.6998 11.0245 16.6643 14.06 12.9198 14.06C9.17531 14.06 6.1398 11.0245 6.1398 7.28C6.1398 3.53551 9.17531 0.5 12.9198 0.5C16.6643 0.5 19.6998 3.53551 19.6998 7.28ZM6.887 7.28C6.887 10.6118 9.58797 13.3128 12.9198 13.3128C16.2516 13.3128 18.9526 10.6118 18.9526 7.28C18.9526 3.94818 16.2516 1.2472 12.9198 1.2472C9.58797 1.2472 6.887 3.94818 6.887 7.28ZM22.5468 22.0124C23.0066 23.1224 23.2705 24.3024 23.328 25.5H22.5831C22.5262 24.4002 22.2819 23.3169 21.8595 22.2971C21.3732 21.1232 20.6605 20.0565 19.762 19.158C18.8635 18.2595 17.7968 17.5468 16.6229 17.0605C15.4489 16.5742 14.1907 16.3239 12.92 16.3239C11.6493 16.3239 10.3911 16.5742 9.21713 17.0605C8.04318 17.5468 6.9765 18.2595 6.078 19.158C5.17949 20.0565 4.46676 21.1232 3.9805 22.2971C3.55811 23.3169 3.31378 24.4002 3.25688 25.5H2.512C2.56953 24.3024 2.8334 23.1224 3.29317 22.0124C3.81683 20.7482 4.58436 19.5995 5.55195 18.6319C6.51953 17.6644 7.66822 16.8968 8.93244 16.3732C10.1966 15.8495 11.5516 15.58 12.92 15.58C14.2884 15.58 15.6433 15.8495 16.9076 16.3732C18.1718 16.8968 19.3205 17.6644 20.288 18.6319C21.2556 19.5995 22.0232 20.7482 22.5468 22.0124Z" fill="black" stroke="#242424"/>
</g>
</svg>
