<svg width="25" height="26" viewBox="0 0 25 26" fill="none" xmlns="http://www.w3.org/2000/svg">
<path fill-rule="evenodd" clip-rule="evenodd" d="M10.348 14.5896L10.3475 10.0623L14.6705 12.3338L10.348 14.5896ZM19.84 9.27773C19.84 9.27773 19.6835 8.16741 19.204 7.67846C18.5955 7.03644 17.9135 7.03342 17.601 6.99616C15.362 6.83301 12.0035 6.83301 12.0035 6.83301H11.9965C11.9965 6.83301 8.638 6.83301 6.399 6.99616C6.086 7.03342 5.4045 7.03644 4.7955 7.67846C4.316 8.16741 4.16 9.27773 4.16 9.27773C4.16 9.27773 4 10.5819 4 11.8856V13.1082C4 14.4124 4.16 15.7161 4.16 15.7161C4.16 15.7161 4.316 16.8264 4.7955 17.3153C5.4045 17.9574 6.204 17.9372 6.56 18.0042C7.84 18.1281 12 18.1663 12 18.1663C12 18.1663 15.362 18.1613 17.601 17.9982C17.9135 17.9604 18.5955 17.9574 19.204 17.3153C19.6835 16.8264 19.84 15.7161 19.84 15.7161C19.84 15.7161 20 14.4124 20 13.1082V11.8856C20 10.5819 19.84 9.27773 19.84 9.27773Z" fill="white"/>
</svg>
